#N canvas 512 54 1408 797 10;
#X msg 42 64 open \$1;
#X msg -31 64 devices;
#X obj 556 522 import mrpeach;
#X msg 114 64 close;
#X obj 42 583 packOSC;
#X obj 42 632 udpsend;
#X msg 556 594 disconnect;
#X obj 42 10 hradio 15 1 0 8 empty empty empty 0 -8 0 10 -262144 -1
-1 0;
#X obj 42 117 comport \$1 115200;
#X obj 42 168 serial_print;
#X obj 42 218 split 1 100;
#X obj 214 218 split 101 200;
#X obj 397 218 split 201 300;
#X floatatom 42 258 5 0 0 0 - - -, f 5;
#X floatatom 214 258 5 0 0 0 - - -, f 5;
#X floatatom 397 258 5 0 0 0 - - -, f 5;
#X floatatom 281 452 5 0 0 0 - - -, f 5;
#X floatatom 463 452 5 0 0 0 - - -, f 5;
#X msg 42 490 send /eqLow \$1;
#X msg 214 494 send /eqMid \$1;
#X msg 397 496 send /eqHi \$1;
#X floatatom 42 325 5 0 0 0 - - -, f 5;
#X floatatom 86 325 5 0 0 0 - - -, f 5;
#X floatatom 214 325 5 0 0 0 - - -, f 5;
#X floatatom 265 325 5 0 0 0 - - -, f 5;
#X floatatom 397 325 5 0 0 0 - - -, f 5;
#X floatatom 448 325 5 0 0 0 - - -, f 5;
#X obj 397 293 moses 250;
#X obj 214 293 moses 150;
#X obj 42 293 moses 50;
#X floatatom 397 452 5 0 0 0 - - -, f 5;
#X obj 397 405 autoscale 0.125 0.5, f 9;
#X obj 463 405 autoscale 0.501 0.999, f 11;
#X obj 214 405 autoscale 0.125 0.5, f 9;
#X obj 281 405 autoscale 0.501 0.999, f 11;
#X floatatom 214 452 5 0 0 0 - - -, f 5;
#X obj 42 406 autoscale 0.125 0.5, f 9;
#X obj 107 406 autoscale 0.501 0.999, f 11;
#X text 173 11 # Open COM port;
#X text 490 218 # Split into ranges;
#X text 78 241 # LOW;
#X text 263 241 # MID;
#X text 437 241 # HIGH;
#X text 513 290 # 'moses' acts as conditional where values below parameter
are routed left and values equal to or above are routed right, f 64
;
#X text 513 326 # This is used to properly scale EQ values to a minimum
of -12dB instead of to minus infinity \, which causes a mess and alters
other EQ bands as a result, f 76;
#X text 540 405 # 0.125 equates to -12 for the plugin and 0.5 (halfway/central
position of pot) equates to 0;
#X text 540 445 # Therefore \, scale between -12 and 0 for values to
the left of the center position of the pot. Scale between 0 and +12
for values to the right, f 74;
#X text 316 637 # OSC bundling and network functions;
#X floatatom 42 455 5 0 0 0 - - -, f 5;
#X floatatom 107 452 5 0 0 0 - - -, f 5;
#X msg 556 565 connect localhost 8888;
#X text 134 156 # function enables decoding of serial print functions
from Arduino - import from 'Arduino_Pd', f 50;
#X text 46 29 0;
#X text 60 29 1;
#X text 73 29 2;
#X text 88 29 ...;
#X text 108 572 # Send and pack OSC messages with values;
#X connect 0 0 8 0;
#X connect 1 0 8 0;
#X connect 3 0 8 0;
#X connect 4 0 5 0;
#X connect 6 0 5 0;
#X connect 7 0 0 0;
#X connect 8 0 9 0;
#X connect 9 0 10 0;
#X connect 9 0 12 0;
#X connect 9 0 11 0;
#X connect 10 0 13 0;
#X connect 11 0 14 0;
#X connect 12 0 15 0;
#X connect 13 0 29 0;
#X connect 14 0 28 0;
#X connect 15 0 27 0;
#X connect 16 0 19 0;
#X connect 17 0 20 0;
#X connect 18 0 4 0;
#X connect 19 0 4 0;
#X connect 20 0 4 0;
#X connect 21 0 36 0;
#X connect 22 0 37 0;
#X connect 23 0 33 0;
#X connect 24 0 34 0;
#X connect 25 0 31 0;
#X connect 26 0 32 0;
#X connect 27 0 25 0;
#X connect 27 1 26 0;
#X connect 28 0 23 0;
#X connect 28 1 24 0;
#X connect 29 0 21 0;
#X connect 29 1 22 0;
#X connect 30 0 20 0;
#X connect 31 0 30 0;
#X connect 32 0 17 0;
#X connect 33 0 35 0;
#X connect 34 0 16 0;
#X connect 35 0 19 0;
#X connect 36 0 48 0;
#X connect 37 0 49 0;
#X connect 48 0 18 0;
#X connect 49 0 18 0;
#X connect 50 0 5 0;
