#N canvas 0 0 1892 963 10;
#X msg 84 90 open \$1;
#X msg 120 122 devices;
#X floatatom 84 213 5 0 0 0 - - -, f 5;
#X obj 445 336 import mrpeach;
#X msg 445 402 disconnect;
#X obj 84 484 udpsend;
#X msg 84 324 send /test \$1;
#X obj 84 372 packOSC;
#X obj 84 170 comport \$1 115200;
#X obj 84 33 hradio 24 1 0 8 empty empty empty 0 -8 0 10 -262144 -1
-1 0;
#X floatatom 26 300 5 0 0 0 - - -, f 5;
#X obj 84 260 / 100.01;
#X text 311 38 # Select COM port no.;
#X text 84 12 0;
#X text 109 12 1;
#X text 134 12 2;
#X text 159 12 3;
#X text 184 12 ...;
#X text 151 89 # Open port;
#X text 183 124 # List device on port;
#X text 199 169 # Establish serial interface with baudrate;
#X text 145 259 # Scale value between 0 and 0.99 (1 resets);
#X text 180 325 # Send OSC message '/test' with value;
#X text 146 372 # Pack as OSC message;
#X text 144 483 # Send UDP packet;
#X text 596 364 # Connect to IP on port no.;
#X text 445 302 # Import mrpeach package for network and OSC externals
;
#X msg 445 364 connect localhost 8888;
#X text 145 282 # alternatively \, can use autoscale function;
#X connect 0 0 8 0;
#X connect 1 0 8 0;
#X connect 2 0 11 0;
#X connect 4 0 5 0;
#X connect 6 0 7 0;
#X connect 7 0 5 0;
#X connect 8 0 2 0;
#X connect 9 0 0 0;
#X connect 11 0 6 0;
#X connect 11 0 10 0;
#X connect 27 0 5 0;
