#N canvas 560 40 1142 909 10;
#X floatatom 627 -16 5 0 0 0 - - -, f 5;
#X floatatom 621 146 5 0 0 0 - - -, f 5;
#X floatatom 622 314 5 0 0 0 - - -, f 5;
#X floatatom 621 486 5 0 0 0 - - -, f 5;
#X floatatom 621 769 5 0 0 0 - - -, f 5;
#X floatatom 621 1029 5 0 0 0 - - -, f 5;
#X floatatom 653 1295 5 0 0 0 - - -, f 5;
#X obj 627 11 autoscale 0.001 0.999, f 12;
#X obj 621 174 autoscale 0.001 0.999, f 14;
#X obj 622 340 autoscale 0.001 0.999, f 13;
#X floatatom 627 50 5 0 0 0 - - -, f 5;
#X floatatom 621 216 5 0 0 0 - - -, f 5;
#X floatatom 622 380 5 0 0 0 - - -, f 5;
#X obj 627 -40 split 101 200;
#X msg 627 75 send /vol1 \$1;
#X obj 621 117 split 1101 1200;
#X obj 622 287 split 2101 2200;
#X obj 621 455 split 3101 3200;
#X obj 621 743 split 4101 4200;
#X obj 621 1004 split 5101 5200;
#X obj 653 1263 split 6101 6200;
#X msg 622 406 send /send1 \$1;
#X msg 621 244 send /pan1 \$1;
#X msg 621 698 send /eqLow1 \$1;
#X msg 621 1214 send /eqHi1 \$1;
#X obj 2146 675 import mrpeach;
#X msg 2050 689 disconnect;
#X floatatom 731 -17 5 0 0 0 - - -, f 5;
#X obj 731 10 autoscale 0.001 0.999, f 12;
#X floatatom 731 49 5 0 0 0 - - -, f 5;
#X floatatom 831 -16 5 0 0 0 - - -, f 5;
#X obj 831 11 autoscale 0.001 0.999, f 12;
#X floatatom 831 50 5 0 0 0 - - -, f 5;
#X floatatom 929 -17 5 0 0 0 - - -, f 5;
#X obj 929 10 autoscale 0.001 0.999, f 12;
#X floatatom 929 49 5 0 0 0 - - -, f 5;
#X floatatom 1025 -17 5 0 0 0 - - -, f 5;
#X obj 1025 10 autoscale 0.001 0.999, f 12;
#X floatatom 1025 49 5 0 0 0 - - -, f 5;
#X floatatom 1129 -18 5 0 0 0 - - -, f 5;
#X obj 1129 9 autoscale 0.001 0.999, f 12;
#X floatatom 1129 48 5 0 0 0 - - -, f 5;
#X floatatom 1229 -17 5 0 0 0 - - -, f 5;
#X obj 1229 10 autoscale 0.001 0.999, f 12;
#X floatatom 1229 49 5 0 0 0 - - -, f 5;
#X floatatom 1327 -18 5 0 0 0 - - -, f 5;
#X obj 1327 9 autoscale 0.001 0.999, f 12;
#X floatatom 1327 48 5 0 0 0 - - -, f 5;
#X obj 731 -41 split 201 300;
#X obj 831 -40 split 301 400;
#X obj 929 -41 split 401 500;
#X obj 1025 -41 split 501 600;
#X obj 1129 -42 split 601 700;
#X obj 1229 -41 split 701 800;
#X obj 1327 -42 split 801 900;
#X msg 731 74 send /vol2 \$1;
#X msg 831 75 send /vol3 \$1;
#X msg 929 74 send /vol4 \$1;
#X msg 1025 74 send /vol5 \$1;
#X msg 1129 73 send /vol6 \$1;
#X msg 1229 74 send /vol7 \$1;
#X msg 1327 73 send /vol8 \$1;
#X floatatom 729 146 5 0 0 0 - - -, f 5;
#X obj 729 174 autoscale 0.001 0.999, f 14;
#X floatatom 729 216 5 0 0 0 - - -, f 5;
#X floatatom 832 146 5 0 0 0 - - -, f 5;
#X obj 832 174 autoscale 0.001 0.999, f 14;
#X floatatom 832 216 5 0 0 0 - - -, f 5;
#X floatatom 934 146 5 0 0 0 - - -, f 5;
#X obj 934 174 autoscale 0.001 0.999, f 14;
#X floatatom 934 216 5 0 0 0 - - -, f 5;
#X floatatom 1038 146 5 0 0 0 - - -, f 5;
#X obj 1038 174 autoscale 0.001 0.999, f 14;
#X floatatom 1038 216 5 0 0 0 - - -, f 5;
#X floatatom 1146 146 5 0 0 0 - - -, f 5;
#X obj 1146 174 autoscale 0.001 0.999, f 14;
#X floatatom 1146 216 5 0 0 0 - - -, f 5;
#X floatatom 1249 146 5 0 0 0 - - -, f 5;
#X obj 1249 174 autoscale 0.001 0.999, f 14;
#X floatatom 1249 216 5 0 0 0 - - -, f 5;
#X floatatom 1351 146 5 0 0 0 - - -, f 5;
#X obj 1351 174 autoscale 0.001 0.999, f 14;
#X floatatom 1351 216 5 0 0 0 - - -, f 5;
#X msg 621 960 send /eqMid1 \$1;
#X msg 729 244 send /pan2 \$1;
#X msg 832 244 send /pan3 \$1;
#X msg 934 244 send /pan4 \$1;
#X msg 1038 244 send /pan5 \$1;
#X msg 1146 244 send /pan6 \$1;
#X msg 1249 244 send /pan7 \$1;
#X msg 1351 244 send /pan8 \$1;
#X obj 729 117 split 1201 1300;
#X obj 832 117 split 1301 1400;
#X obj 934 117 split 1401 1500;
#X obj 1038 117 split 1501 1600;
#X obj 1146 117 split 1601 1700;
#X obj 1249 117 split 1701 1800;
#X obj 1351 117 split 1801 1900;
#X floatatom 725 314 5 0 0 0 - - -, f 5;
#X obj 725 340 autoscale 0.001 0.999, f 13;
#X floatatom 725 380 5 0 0 0 - - -, f 5;
#X floatatom 828 314 5 0 0 0 - - -, f 5;
#X obj 828 340 autoscale 0.001 0.999, f 13;
#X floatatom 828 380 5 0 0 0 - - -, f 5;
#X floatatom 931 314 5 0 0 0 - - -, f 5;
#X obj 931 340 autoscale 0.001 0.999, f 13;
#X floatatom 931 380 5 0 0 0 - - -, f 5;
#X text 1475 6 # VOLUME CONTROL;
#X text 1477 152 # PANNING;
#X obj 1034 340 autoscale 0.001 0.999, f 13;
#X floatatom 1137 314 5 0 0 0 - - -, f 5;
#X obj 1137 340 autoscale 0.001 0.999, f 13;
#X floatatom 1137 380 5 0 0 0 - - -, f 5;
#X floatatom 1240 314 5 0 0 0 - - -, f 5;
#X obj 1240 340 autoscale 0.001 0.999, f 13;
#X floatatom 1240 380 5 0 0 0 - - -, f 5;
#X floatatom 1343 314 5 0 0 0 - - -, f 5;
#X obj 1343 340 autoscale 0.001 0.999, f 13;
#X floatatom 1343 380 5 0 0 0 - - -, f 5;
#X obj 725 287 split 2201 2300;
#X obj 828 287 split 2301 2400;
#X obj 931 287 split 2401 2500;
#X obj 1034 287 split 2501 2600;
#X obj 1137 287 split 2601 2700;
#X obj 1240 287 split 2701 2800;
#X obj 1343 287 split 2801 2900;
#X floatatom 1034 314 5 0 0 0 - - -, f 5;
#X floatatom 1034 380 5 0 0 0 - - -, f 5;
#X msg 725 406 send /send2 \$1;
#X msg 828 406 send /send3 \$1;
#X msg 931 406 send /send4 \$1;
#X msg 1034 406 send /send5 \$1;
#X msg 1137 406 send /send6 \$1;
#X msg 1240 406 send /send7 \$1;
#X msg 1343 406 send /send8 \$1;
#X text 1477 344 # TRACK SENDS;
#X floatatom 621 558 5 0 0 0 - - -, f 5;
#X floatatom 673 557 5 0 0 0 - - -, f 5;
#X obj 621 598 autoscale 0.125 0.5, f 5;
#X obj 673 598 autoscale 0.501 0.999, f 5;
#X floatatom 621 668 5 0 0 0 - - -, f 5;
#X floatatom 673 668 5 0 0 0 - - -, f 5;
#X floatatom 723 486 5 0 0 0 - - -, f 5;
#X floatatom 723 558 5 0 0 0 - - -, f 5;
#X floatatom 775 557 5 0 0 0 - - -, f 5;
#X obj 723 598 autoscale 0.125 0.5, f 5;
#X obj 775 598 autoscale 0.501 0.999, f 5;
#X floatatom 723 668 5 0 0 0 - - -, f 5;
#X floatatom 775 668 5 0 0 0 - - -, f 5;
#X floatatom 828 486 5 0 0 0 - - -, f 5;
#X floatatom 828 558 5 0 0 0 - - -, f 5;
#X floatatom 880 557 5 0 0 0 - - -, f 5;
#X obj 828 598 autoscale 0.125 0.5, f 5;
#X obj 880 598 autoscale 0.501 0.999, f 5;
#X floatatom 828 668 5 0 0 0 - - -, f 5;
#X floatatom 880 668 5 0 0 0 - - -, f 5;
#X floatatom 933 486 5 0 0 0 - - -, f 5;
#X floatatom 933 558 5 0 0 0 - - -, f 5;
#X floatatom 985 557 5 0 0 0 - - -, f 5;
#X obj 933 598 autoscale 0.125 0.5, f 5;
#X obj 985 598 autoscale 0.501 0.999, f 5;
#X floatatom 933 668 5 0 0 0 - - -, f 5;
#X floatatom 985 668 5 0 0 0 - - -, f 5;
#X floatatom 1038 486 5 0 0 0 - - -, f 5;
#X floatatom 1038 558 5 0 0 0 - - -, f 5;
#X floatatom 1090 557 5 0 0 0 - - -, f 5;
#X obj 1038 598 autoscale 0.125 0.5, f 5;
#X obj 1090 598 autoscale 0.501 0.999, f 5;
#X floatatom 1038 668 5 0 0 0 - - -, f 5;
#X floatatom 1090 668 5 0 0 0 - - -, f 5;
#X floatatom 1141 486 5 0 0 0 - - -, f 5;
#X floatatom 1141 558 5 0 0 0 - - -, f 5;
#X floatatom 1193 557 5 0 0 0 - - -, f 5;
#X obj 1141 598 autoscale 0.125 0.5, f 5;
#X obj 1193 598 autoscale 0.501 0.999, f 5;
#X floatatom 1141 668 5 0 0 0 - - -, f 5;
#X floatatom 1193 668 5 0 0 0 - - -, f 5;
#X floatatom 1245 486 5 0 0 0 - - -, f 5;
#X floatatom 1245 558 5 0 0 0 - - -, f 5;
#X floatatom 1297 557 5 0 0 0 - - -, f 5;
#X obj 1245 598 autoscale 0.125 0.5, f 5;
#X obj 1297 598 autoscale 0.501 0.999, f 5;
#X floatatom 1245 668 5 0 0 0 - - -, f 5;
#X floatatom 1297 668 5 0 0 0 - - -, f 5;
#X floatatom 1350 486 5 0 0 0 - - -, f 5;
#X floatatom 1350 558 5 0 0 0 - - -, f 5;
#X floatatom 1402 557 5 0 0 0 - - -, f 5;
#X obj 1350 598 autoscale 0.125 0.5, f 5;
#X obj 1402 598 autoscale 0.501 0.999, f 5;
#X floatatom 1350 668 5 0 0 0 - - -, f 5;
#X floatatom 1402 668 5 0 0 0 - - -, f 5;
#X msg 723 698 send /eqLow2 \$1;
#X msg 828 698 send /eqLow3 \$1;
#X msg 933 698 send /eqLow4 \$1;
#X msg 1038 698 send /eqLow5 \$1;
#X msg 1141 698 send /eqLow6 \$1;
#X msg 1245 698 send /eqLow7 \$1;
#X msg 1350 698 send /eqLow8 \$1;
#X obj 723 455 split 3201 3300;
#X obj 828 455 split 3301 3400;
#X obj 933 455 split 3401 3500;
#X obj 1038 455 split 3501 3600;
#X obj 1141 455 split 3601 3700;
#X obj 1245 455 split 3701 3800;
#X obj 1350 455 split 3801 3900;
#X obj 621 523 moses 3150;
#X obj 723 523 moses 3250;
#X obj 828 523 moses 3350;
#X obj 933 523 moses 3450;
#X obj 1038 523 moses 3550;
#X obj 1141 523 moses 3650;
#X obj 1245 523 moses 3750;
#X obj 1350 523 moses 3850;
#X obj 621 800 moses 4150;
#X floatatom 621 831 5 0 0 0 - - -, f 5;
#X floatatom 672 831 5 0 0 0 - - -, f 5;
#X obj 621 859 autoscale 0.125 0.5, f 5;
#X obj 672 859 autoscale 0.501 0.999, f 5;
#X floatatom 621 925 5 0 0 0 - - -, f 5;
#X floatatom 672 925 5 0 0 0 - - -, f 5;
#X floatatom 724 769 5 0 0 0 - - -, f 5;
#X floatatom 724 831 5 0 0 0 - - -, f 5;
#X floatatom 775 831 5 0 0 0 - - -, f 5;
#X obj 724 859 autoscale 0.125 0.5, f 5;
#X obj 775 859 autoscale 0.501 0.999, f 5;
#X floatatom 724 925 5 0 0 0 - - -, f 5;
#X floatatom 775 925 5 0 0 0 - - -, f 5;
#X floatatom 829 768 5 0 0 0 - - -, f 5;
#X floatatom 829 830 5 0 0 0 - - -, f 5;
#X floatatom 880 830 5 0 0 0 - - -, f 5;
#X obj 829 858 autoscale 0.125 0.5, f 5;
#X obj 880 858 autoscale 0.501 0.999, f 5;
#X floatatom 829 924 5 0 0 0 - - -, f 5;
#X floatatom 880 924 5 0 0 0 - - -, f 5;
#X floatatom 934 768 5 0 0 0 - - -, f 5;
#X floatatom 934 830 5 0 0 0 - - -, f 5;
#X floatatom 985 830 5 0 0 0 - - -, f 5;
#X obj 934 858 autoscale 0.125 0.5, f 5;
#X obj 985 858 autoscale 0.501 0.999, f 5;
#X floatatom 934 924 5 0 0 0 - - -, f 5;
#X floatatom 985 924 5 0 0 0 - - -, f 5;
#X floatatom 1039 768 5 0 0 0 - - -, f 5;
#X floatatom 1039 830 5 0 0 0 - - -, f 5;
#X floatatom 1090 830 5 0 0 0 - - -, f 5;
#X obj 1039 858 autoscale 0.125 0.5, f 5;
#X obj 1090 858 autoscale 0.501 0.999, f 5;
#X floatatom 1039 924 5 0 0 0 - - -, f 5;
#X floatatom 1090 924 5 0 0 0 - - -, f 5;
#X floatatom 1142 768 5 0 0 0 - - -, f 5;
#X floatatom 1142 830 5 0 0 0 - - -, f 5;
#X floatatom 1193 830 5 0 0 0 - - -, f 5;
#X obj 1142 858 autoscale 0.125 0.5, f 5;
#X obj 1193 858 autoscale 0.501 0.999, f 5;
#X floatatom 1142 924 5 0 0 0 - - -, f 5;
#X floatatom 1193 924 5 0 0 0 - - -, f 5;
#X floatatom 1247 767 5 0 0 0 - - -, f 5;
#X floatatom 1247 829 5 0 0 0 - - -, f 5;
#X floatatom 1298 829 5 0 0 0 - - -, f 5;
#X obj 1247 857 autoscale 0.125 0.5, f 5;
#X obj 1298 857 autoscale 0.501 0.999, f 5;
#X floatatom 1247 923 5 0 0 0 - - -, f 5;
#X floatatom 1298 923 5 0 0 0 - - -, f 5;
#X floatatom 1352 767 5 0 0 0 - - -, f 5;
#X floatatom 1352 829 5 0 0 0 - - -, f 5;
#X floatatom 1403 829 5 0 0 0 - - -, f 5;
#X obj 1352 857 autoscale 0.125 0.5, f 5;
#X obj 1403 857 autoscale 0.501 0.999, f 5;
#X floatatom 1352 923 5 0 0 0 - - -, f 5;
#X floatatom 1403 923 5 0 0 0 - - -, f 5;
#X obj 724 743 split 4201 4300;
#X obj 724 800 moses 4250;
#X msg 724 960 send /eqMid2 \$1;
#X obj 829 742 split 4301 4300;
#X obj 829 799 moses 4350;
#X msg 829 959 send /eqMid3 \$1;
#X obj 934 742 split 4401 4500;
#X obj 934 799 moses 4450;
#X msg 934 959 send /eqMid4 \$1;
#X obj 1039 742 split 4501 4600;
#X obj 1039 799 moses 4550;
#X msg 1039 959 send /eqMid5 \$1;
#X obj 1142 742 split 4601 4700;
#X obj 1142 799 moses 4650;
#X msg 1142 959 send /eqMid6 \$1;
#X obj 1247 741 split 4701 4800;
#X obj 1247 798 moses 4750;
#X msg 1247 958 send /eqMid7 \$1;
#X obj 1352 741 split 4801 4900;
#X obj 1352 798 moses 4850;
#X msg 1352 958 send /eqMid8 \$1;
#X obj 621 1062 moses 5150;
#X floatatom 621 1092 5 0 0 0 - - -, f 5;
#X floatatom 672 1093 5 0 0 0 - - -, f 5;
#X obj 621 1119 autoscale 0.125 0.5, f 5;
#X obj 672 1119 autoscale 0.501 0.999, f 5;
#X floatatom 621 1185 5 0 0 0 - - -, f 5;
#X floatatom 672 1186 5 0 0 0 - - -, f 5;
#X floatatom 724 1029 5 0 0 0 - - -, f 5;
#X floatatom 724 1092 5 0 0 0 - - -, f 5;
#X floatatom 775 1093 5 0 0 0 - - -, f 5;
#X obj 724 1119 autoscale 0.125 0.5, f 5;
#X obj 775 1119 autoscale 0.501 0.999, f 5;
#X floatatom 724 1185 5 0 0 0 - - -, f 5;
#X floatatom 775 1186 5 0 0 0 - - -, f 5;
#X floatatom 827 1028 5 0 0 0 - - -, f 5;
#X floatatom 827 1091 5 0 0 0 - - -, f 5;
#X floatatom 878 1092 5 0 0 0 - - -, f 5;
#X obj 827 1118 autoscale 0.125 0.5, f 5;
#X obj 878 1118 autoscale 0.501 0.999, f 5;
#X floatatom 827 1184 5 0 0 0 - - -, f 5;
#X floatatom 878 1185 5 0 0 0 - - -, f 5;
#X floatatom 930 1028 5 0 0 0 - - -, f 5;
#X floatatom 930 1091 5 0 0 0 - - -, f 5;
#X floatatom 981 1092 5 0 0 0 - - -, f 5;
#X obj 930 1118 autoscale 0.125 0.5, f 5;
#X obj 981 1118 autoscale 0.501 0.999, f 5;
#X floatatom 930 1184 5 0 0 0 - - -, f 5;
#X floatatom 981 1185 5 0 0 0 - - -, f 5;
#X floatatom 1033 1028 5 0 0 0 - - -, f 5;
#X floatatom 1033 1091 5 0 0 0 - - -, f 5;
#X floatatom 1084 1092 5 0 0 0 - - -, f 5;
#X obj 1033 1118 autoscale 0.125 0.5, f 5;
#X obj 1084 1118 autoscale 0.501 0.999, f 5;
#X floatatom 1033 1184 5 0 0 0 - - -, f 5;
#X floatatom 1084 1185 5 0 0 0 - - -, f 5;
#X floatatom 1136 1028 5 0 0 0 - - -, f 5;
#X floatatom 1136 1091 5 0 0 0 - - -, f 5;
#X floatatom 1187 1092 5 0 0 0 - - -, f 5;
#X obj 1136 1118 autoscale 0.125 0.5, f 5;
#X obj 1187 1118 autoscale 0.501 0.999, f 5;
#X floatatom 1136 1184 5 0 0 0 - - -, f 5;
#X floatatom 1187 1185 5 0 0 0 - - -, f 5;
#X floatatom 1239 1027 5 0 0 0 - - -, f 5;
#X floatatom 1239 1090 5 0 0 0 - - -, f 5;
#X floatatom 1290 1091 5 0 0 0 - - -, f 5;
#X obj 1239 1117 autoscale 0.125 0.5, f 5;
#X obj 1290 1117 autoscale 0.501 0.999, f 5;
#X floatatom 1239 1183 5 0 0 0 - - -, f 5;
#X floatatom 1290 1184 5 0 0 0 - - -, f 5;
#X floatatom 1342 1027 5 0 0 0 - - -, f 5;
#X floatatom 1342 1090 5 0 0 0 - - -, f 5;
#X floatatom 1393 1091 5 0 0 0 - - -, f 5;
#X obj 1342 1117 autoscale 0.125 0.5, f 5;
#X obj 1393 1117 autoscale 0.501 0.999, f 5;
#X floatatom 1342 1183 5 0 0 0 - - -, f 5;
#X floatatom 1393 1184 5 0 0 0 - - -, f 5;
#X obj 724 1062 moses 5250;
#X obj 724 1004 split 5201 5300;
#X msg 724 1214 send /eqHi2 \$1;
#X obj 827 1003 split 5301 5400;
#X obj 827 1061 moses 5350;
#X msg 827 1213 send /eqHi3 \$1;
#X obj 930 1003 split 5401 5500;
#X obj 930 1061 moses 5450;
#X msg 930 1213 send /eqHi4 \$1;
#X obj 1033 1003 split 5501 5600;
#X obj 1033 1061 moses 5550;
#X msg 1033 1213 send /eqHi5 \$1;
#X obj 1136 1003 split 5601 5700;
#X obj 1136 1061 moses 5650;
#X msg 1136 1213 send /eqHi6 \$1;
#X obj 1239 1002 split 5701 5800;
#X obj 1239 1060 moses 5750;
#X msg 1239 1212 send /eqHi7 \$1;
#X obj 1342 1002 split 5801 5900;
#X obj 1342 1060 moses 5850;
#X msg 1342 1212 send /eqHi8 \$1;
#X text 1481 752 # EQ MID;
#X text 1462 494 # EQ LOW;
#X text 1453 1034 # EQ HIGH;
#X obj 653 1325 autoscale 0.5 0.015, f 5;
#X obj 706 1325 autoscale 1e-005 0.03, f 6;
#X obj 759 1325 autoscale 0.5 1.125, f 6;
#X floatatom 653 1392 5 0 0 0 - - -, f 5;
#X floatatom 706 1392 5 0 0 0 - - -, f 5;
#X floatatom 759 1392 5 0 0 0 - - -, f 5;
#X msg 706 1419 send /compratio1 \$1, f 7;
#X msg 759 1419 send /compout1 \$1, f 8;
#X floatatom 834 1295 5 0 0 0 - - -, f 5;
#X obj 834 1325 autoscale 0.5 0.015, f 5;
#X obj 887 1325 autoscale 1e-005 0.03, f 6;
#X obj 940 1325 autoscale 0.5 1.125, f 6;
#X floatatom 834 1392 5 0 0 0 - - -, f 5;
#X floatatom 887 1392 5 0 0 0 - - -, f 5;
#X floatatom 940 1392 5 0 0 0 - - -, f 5;
#X floatatom 1011 1295 5 0 0 0 - - -, f 5;
#X obj 1011 1325 autoscale 0.5 0.015, f 5;
#X obj 1064 1325 autoscale 1e-005 0.03, f 6;
#X obj 1117 1325 autoscale 0.5 1.125, f 6;
#X floatatom 1011 1392 5 0 0 0 - - -, f 5;
#X floatatom 1064 1392 5 0 0 0 - - -, f 5;
#X floatatom 1117 1392 5 0 0 0 - - -, f 5;
#X floatatom 1186 1295 5 0 0 0 - - -, f 5;
#X obj 1186 1325 autoscale 0.5 0.015, f 5;
#X obj 1239 1325 autoscale 1e-005 0.03, f 6;
#X obj 1292 1325 autoscale 0.5 1.125, f 6;
#X floatatom 1186 1392 5 0 0 0 - - -, f 5;
#X floatatom 1239 1392 5 0 0 0 - - -, f 5;
#X floatatom 1292 1392 5 0 0 0 - - -, f 5;
#X obj 834 1263 split 6201 6300;
#X obj 1011 1263 split 6301 6400;
#X obj 1186 1263 split 6401 6500;
#X msg 653 1419 send /compthres1 \$1, f 7;
#X msg 834 1419 send /compthres2 \$1, f 7;
#X msg 887 1419 send /compratio2 \$1, f 7;
#X msg 940 1419 send /compout2 \$1, f 8;
#X msg 1011 1419 send /compthres3 \$1, f 7;
#X msg 1064 1419 send /compratio3 \$1, f 7;
#X msg 1117 1419 send /compout3 \$1, f 8;
#X msg 1186 1419 send /compthres4 \$1, f 7;
#X msg 1239 1419 send /compratio4 \$1, f 7;
#X msg 1292 1419 send /compout4 \$1, f 8;
#X text 1396 1347 # COMPRESSION;
#X obj 1035 1477 split 901 1000;
#X floatatom 740 1547 5 0 0 0 - - -, f 5;
#X floatatom 740 1499 5 0 0 0 - - -, f 5;
#X obj 740 1520 autoscale 0.001 0.999;
#X msg 740 1580 send /mastervol \$1;
#X floatatom 1035 1499 5 0 0 0 - - -, f 5;
#X obj 1035 1520 autoscale 0.001 0.999;
#X floatatom 1035 1547 5 0 0 0 - - -, f 5;
#X msg 1035 1580 send /auxvol \$1;
#X obj 1794 780 bng 15 250 50 0 empty empty empty 17 7 0 10 -262144
-1 -1;
#X obj 1794 833 bng 15 250 50 0 empty empty empty 17 7 0 10 -262144
-1 -1;
#X obj 1794 886 bng 15 250 50 0 empty empty empty 17 7 0 10 -262144
-1 -1;
#X obj 1794 942 bng 15 250 50 0 empty empty empty 17 7 0 10 -262144
-1 -1;
#X obj 1794 997 bng 15 250 50 0 empty empty empty 17 7 0 10 -262144
-1 -1;
#X obj 1794 1054 bng 15 250 50 0 empty empty empty 17 7 0 10 -262144
-1 -1;
#X obj 1794 1104 bng 15 250 50 0 empty empty empty 17 7 0 10 -262144
-1 -1;
#X obj 1794 1157 bng 15 250 50 0 empty empty empty 17 7 0 10 -262144
-1 -1;
#X obj 1809 1243 bng 15 250 50 0 empty empty empty 17 7 0 10 -262144
-1 -1;
#X obj 1809 1293 bng 15 250 50 0 empty empty empty 17 7 0 10 -262144
-1 -1;
#X obj 1809 1346 bng 15 250 50 0 empty empty empty 17 7 0 10 -262144
-1 -1;
#X msg 1850 1241 send /rec;
#X msg 1852 1349 send /stop;
#X msg 1848 1282 send /play 1;
#X msg 1896 1309 send /play 0;
#X msg 1832 779 send /solo1;
#X msg 1832 832 send /solo2;
#X msg 1832 886 send /solo3;
#X msg 1832 942 send /solo4;
#X msg 1832 996 send /solo5;
#X msg 1832 1055 send /solo6;
#X msg 1832 1105 send /solo7;
#X msg 1832 1156 send /solo8;
#X floatatom 670 49 5 0 0 0 - - vol1, f 5;
#X floatatom 771 49 5 0 0 0 - - vol2, f 5;
#X floatatom 879 52 5 0 0 0 - - vol3, f 5;
#X floatatom 975 51 5 0 0 0 - - vol4, f 5;
#X floatatom 1071 50 5 0 0 0 - - vol5, f 5;
#X floatatom 1175 48 5 0 0 0 - - vol6, f 5;
#X floatatom 1274 48 5 0 0 0 - - vol7, f 5;
#X floatatom 1371 50 5 0 0 0 - - vol8, f 5;
#X floatatom 666 217 5 0 0 0 - - pan1, f 5;
#X floatatom 774 218 5 0 0 0 - - pan2, f 5;
#X floatatom 877 217 5 0 0 0 - - pan3, f 5;
#X floatatom 978 216 5 0 0 0 - - pan4, f 5;
#X floatatom 1087 215 5 0 0 0 - - pan5, f 5;
#X floatatom 1192 216 5 0 0 0 - - pan6, f 5;
#X floatatom 1297 218 5 0 0 0 - - pan7, f 5;
#X floatatom 1398 217 5 0 0 0 - - pan8, f 5;
#X floatatom 666 381 5 0 0 0 - - send1, f 5;
#X floatatom 770 382 5 0 0 0 - - send2, f 5;
#X floatatom 873 381 5 0 0 0 - - send3, f 5;
#X floatatom 976 382 5 0 0 0 - - send4, f 5;
#X floatatom 1082 381 5 0 0 0 - - send5, f 5;
#X floatatom 1184 382 5 0 0 0 - - send6, f 5;
#X floatatom 1288 381 5 0 0 0 - - send7, f 5;
#X floatatom 1396 382 5 0 0 0 - - send8, f 5;
#X floatatom 672 487 5 0 0 0 - - eqLow1, f 5;
#X floatatom 774 487 5 0 0 0 - - eqLow2, f 5;
#X floatatom 875 486 5 0 0 0 - - eqLow3, f 5;
#X floatatom 986 486 5 0 0 0 - - eqLow4, f 5;
#X floatatom 1089 488 5 0 0 0 - - eqLow5, f 5;
#X floatatom 1188 487 5 0 0 0 - - eqLow6, f 5;
#X floatatom 1293 483 5 0 0 0 - - eqLow7, f 5;
#X floatatom 1407 487 5 0 0 0 - - eqLow8, f 5;
#X floatatom 671 770 5 0 0 0 - - eqMid1, f 5;
#X floatatom 776 770 5 0 0 0 - - eqMid2, f 5;
#X floatatom 880 769 5 0 0 0 - - eqMid3, f 5;
#X floatatom 981 769 5 0 0 0 - - eqMid4, f 5;
#X floatatom 1087 767 5 0 0 0 - - eqMid5, f 5;
#X floatatom 1193 768 5 0 0 0 - - eqMid6, f 5;
#X floatatom 1298 769 5 0 0 0 - - eqMid7, f 5;
#X floatatom 1404 767 5 0 0 0 - - eqMid8, f 5;
#X floatatom 670 1033 5 0 0 0 - - eqHi1, f 5;
#X floatatom 777 1029 5 0 0 0 - - eqHi2, f 5;
#X floatatom 874 1028 5 0 0 0 - - eqHi3, f 5;
#X floatatom 979 1029 5 0 0 0 - - eqHi4, f 5;
#X floatatom 1081 1029 5 0 0 0 - - eqHi5, f 5;
#X floatatom 1189 1030 5 0 0 0 - - eqHi6, f 5;
#X floatatom 1290 1027 5 0 0 0 - - eqHi7, f 5;
#X floatatom 1392 1028 5 0 0 0 - - eqHi8, f 5;
#X floatatom 711 1292 5 0 0 0 - - comp1, f 5;
#X floatatom 894 1296 5 0 0 0 - - comp2, f 5;
#X floatatom 1069 1294 5 0 0 0 - - comp3, f 5;
#X floatatom 1239 1295 5 0 0 0 - - comp4, f 5;
#X floatatom 798 1550 5 0 0 0 - - mastervol, f 5;
#X floatatom 1111 1549 5 0 0 0 - - auxvol, f 5;
#X obj 1794 807 bng 15 250 50 0 solo1 empty empty 17 7 0 10 -262144
-1 -1;
#X obj 1795 860 bng 15 250 50 0 solo2 empty empty 17 7 0 10 -262144
-1 -1;
#X obj 1794 913 bng 15 250 50 0 solo3 empty empty 17 7 0 10 -262144
-1 -1;
#X obj 1795 969 bng 15 250 50 0 solo4 empty empty 17 7 0 10 -262144
-1 -1;
#X obj 1794 1023 bng 15 250 50 0 solo5 empty empty 17 7 0 10 -262144
-1 -1;
#X obj 1795 1078 bng 15 250 50 0 solo6 empty empty 17 7 0 10 -262144
-1 -1;
#X obj 1794 1128 bng 15 250 50 0 solo7 empty empty 17 7 0 10 -262144
-1 -1;
#X obj 1793 1182 bng 15 250 50 0 solo8 empty empty 17 7 0 10 -262144
-1 -1;
#X obj 1808 1270 bng 15 250 50 0 rec empty empty 17 7 0 10 -262144
-1 -1;
#X obj 1811 1319 bng 15 250 50 0 play empty empty 17 7 0 10 -262144
-1 -1;
#X obj 1809 1377 bng 15 250 50 0 stop empty empty 17 7 0 10 -262144
-1 -1;
#X obj 1953 479 mrpeach/packOSC;
#X obj 2065 836 mrpeach/udpsend;
#X obj 112 136 mrpeach/udpreceive 8888;
#X obj 112 193 mrpeach/unpackOSC;
#X floatatom 112 313 5 0 0 0 - - -, f 5;
#X obj 2071 588 inlet;
#X obj 2074 630 bng 22 250 50 0 empty empty empty 17 7 0 10 -262144
-1 -1;
#X msg 2146 716 connect localhost 9999;
#X obj 740 1477 split 1 100;
#X obj 1702 779 select 9991;
#X obj 1702 832 select 9992;
#X obj 1702 885 select 9993;
#X obj 1702 941 select 9994;
#X obj 1702 996 select 9995;
#X obj 1702 1053 select 9996;
#X obj 1702 1104 select 9997;
#X obj 1702 1156 select 9998;
#X obj 1717 1242 select 99991;
#X obj 1717 1293 select 99992;
#X obj 1717 1345 select 99993;
#X obj 112 250 mrpeach/routeOSC /esp;
#X text 52 97 # mrpeach OSC functions to receive on port \, route /esp
messages, f 34;
#X text 644 -62 CHANNEL1;
#X text 752 -62 CHANNEL2;
#X text 855 -62 CHANNEL3;
#X text 952 -62 CHANNEL4;
#X text 1044 -62 CHANNEL5;
#X text 1144 -62 CHANNEL6;
#X text 1243 -62 CHANNEL7;
#X text 1341 -62 CHANNEL8;
#X text 630 1529 # MASTER VOLUME;
#X text 1187 1527 # SEND VOLUME;
#X text 1979 1027 # PUSH BUTTONS;
#X text 1979 1061 # SOLO and TRANSPORT CONTROLS;
#X text 2027 548 # inlet is DAW connect button;
#X text 2094 780 # OSC and NETWORKING functions;
#X connect 0 0 7 0;
#X connect 1 0 8 0;
#X connect 2 0 9 0;
#X connect 3 0 205 0;
#X connect 4 0 213 0;
#X connect 5 0 290 0;
#X connect 6 0 370 0;
#X connect 6 0 371 0;
#X connect 6 0 372 0;
#X connect 7 0 10 0;
#X connect 7 0 445 0;
#X connect 8 0 11 0;
#X connect 8 0 453 0;
#X connect 9 0 12 0;
#X connect 9 0 461 0;
#X connect 10 0 14 0;
#X connect 11 0 22 0;
#X connect 12 0 21 0;
#X connect 13 0 0 0;
#X connect 14 0 510 0;
#X connect 15 0 1 0;
#X connect 16 0 2 0;
#X connect 17 0 3 0;
#X connect 17 0 469 0;
#X connect 18 0 4 0;
#X connect 18 0 477 0;
#X connect 19 0 5 0;
#X connect 19 0 485 0;
#X connect 20 0 6 0;
#X connect 20 0 493 0;
#X connect 21 0 510 0;
#X connect 22 0 510 0;
#X connect 23 0 510 0;
#X connect 24 0 510 0;
#X connect 26 0 511 0;
#X connect 27 0 28 0;
#X connect 28 0 29 0;
#X connect 28 0 446 0;
#X connect 29 0 55 0;
#X connect 30 0 31 0;
#X connect 31 0 32 0;
#X connect 31 0 447 0;
#X connect 32 0 56 0;
#X connect 33 0 34 0;
#X connect 34 0 35 0;
#X connect 34 0 448 0;
#X connect 35 0 57 0;
#X connect 36 0 37 0;
#X connect 37 0 38 0;
#X connect 37 0 449 0;
#X connect 38 0 58 0;
#X connect 39 0 40 0;
#X connect 40 0 41 0;
#X connect 40 0 450 0;
#X connect 41 0 59 0;
#X connect 42 0 43 0;
#X connect 43 0 44 0;
#X connect 43 0 451 0;
#X connect 44 0 60 0;
#X connect 45 0 46 0;
#X connect 46 0 47 0;
#X connect 46 0 452 0;
#X connect 47 0 61 0;
#X connect 48 0 27 0;
#X connect 49 0 30 0;
#X connect 50 0 33 0;
#X connect 51 0 36 0;
#X connect 52 0 39 0;
#X connect 53 0 42 0;
#X connect 54 0 45 0;
#X connect 55 0 510 0;
#X connect 56 0 510 0;
#X connect 57 0 510 0;
#X connect 58 0 510 0;
#X connect 59 0 510 0;
#X connect 60 0 510 0;
#X connect 61 0 510 0;
#X connect 62 0 63 0;
#X connect 63 0 64 0;
#X connect 63 0 454 0;
#X connect 64 0 84 0;
#X connect 65 0 66 0;
#X connect 66 0 67 0;
#X connect 66 0 455 0;
#X connect 67 0 85 0;
#X connect 68 0 69 0;
#X connect 69 0 70 0;
#X connect 69 0 456 0;
#X connect 70 0 86 0;
#X connect 71 0 72 0;
#X connect 72 0 73 0;
#X connect 72 0 457 0;
#X connect 73 0 87 0;
#X connect 74 0 75 0;
#X connect 75 0 76 0;
#X connect 75 0 458 0;
#X connect 76 0 88 0;
#X connect 77 0 78 0;
#X connect 78 0 79 0;
#X connect 78 0 459 0;
#X connect 79 0 89 0;
#X connect 80 0 81 0;
#X connect 81 0 82 0;
#X connect 81 0 460 0;
#X connect 82 0 90 0;
#X connect 83 0 510 0;
#X connect 84 0 510 0;
#X connect 85 0 510 0;
#X connect 86 0 510 0;
#X connect 87 0 510 0;
#X connect 88 0 510 0;
#X connect 89 0 510 0;
#X connect 90 0 510 0;
#X connect 91 0 62 0;
#X connect 92 0 65 0;
#X connect 93 0 68 0;
#X connect 94 0 71 0;
#X connect 95 0 74 0;
#X connect 96 0 77 0;
#X connect 97 0 80 0;
#X connect 98 0 99 0;
#X connect 99 0 100 0;
#X connect 99 0 462 0;
#X connect 100 0 128 0;
#X connect 101 0 102 0;
#X connect 102 0 103 0;
#X connect 102 0 463 0;
#X connect 103 0 129 0;
#X connect 104 0 105 0;
#X connect 105 0 106 0;
#X connect 105 0 464 0;
#X connect 106 0 130 0;
#X connect 109 0 127 0;
#X connect 109 0 465 0;
#X connect 110 0 111 0;
#X connect 111 0 112 0;
#X connect 111 0 466 0;
#X connect 112 0 132 0;
#X connect 113 0 114 0;
#X connect 114 0 115 0;
#X connect 114 0 467 0;
#X connect 115 0 133 0;
#X connect 116 0 117 0;
#X connect 117 0 118 0;
#X connect 117 0 468 0;
#X connect 118 0 134 0;
#X connect 119 0 98 0;
#X connect 120 0 101 0;
#X connect 121 0 104 0;
#X connect 122 0 126 0;
#X connect 123 0 110 0;
#X connect 124 0 113 0;
#X connect 125 0 116 0;
#X connect 126 0 109 0;
#X connect 127 0 131 0;
#X connect 128 0 510 0;
#X connect 129 0 510 0;
#X connect 130 0 510 0;
#X connect 131 0 510 0;
#X connect 132 0 510 0;
#X connect 133 0 510 0;
#X connect 134 0 510 0;
#X connect 136 0 138 0;
#X connect 137 0 139 0;
#X connect 138 0 140 0;
#X connect 139 0 141 0;
#X connect 140 0 23 0;
#X connect 141 0 23 0;
#X connect 142 0 206 0;
#X connect 143 0 145 0;
#X connect 144 0 146 0;
#X connect 145 0 147 0;
#X connect 146 0 148 0;
#X connect 147 0 191 0;
#X connect 148 0 191 0;
#X connect 149 0 207 0;
#X connect 150 0 152 0;
#X connect 151 0 153 0;
#X connect 152 0 154 0;
#X connect 153 0 155 0;
#X connect 154 0 192 0;
#X connect 155 0 192 0;
#X connect 156 0 208 0;
#X connect 157 0 159 0;
#X connect 158 0 160 0;
#X connect 159 0 161 0;
#X connect 160 0 162 0;
#X connect 161 0 193 0;
#X connect 162 0 193 0;
#X connect 163 0 209 0;
#X connect 164 0 166 0;
#X connect 165 0 167 0;
#X connect 166 0 168 0;
#X connect 167 0 169 0;
#X connect 168 0 194 0;
#X connect 169 0 194 0;
#X connect 170 0 210 0;
#X connect 171 0 173 0;
#X connect 172 0 174 0;
#X connect 173 0 175 0;
#X connect 174 0 176 0;
#X connect 175 0 195 0;
#X connect 176 0 195 0;
#X connect 177 0 211 0;
#X connect 178 0 180 0;
#X connect 179 0 181 0;
#X connect 180 0 182 0;
#X connect 181 0 183 0;
#X connect 182 0 196 0;
#X connect 183 0 196 0;
#X connect 184 0 212 0;
#X connect 185 0 187 0;
#X connect 186 0 188 0;
#X connect 187 0 189 0;
#X connect 188 0 190 0;
#X connect 189 0 197 0;
#X connect 190 0 197 0;
#X connect 191 0 510 0;
#X connect 192 0 510 0;
#X connect 193 0 510 0;
#X connect 194 0 510 0;
#X connect 195 0 510 0;
#X connect 196 0 510 0;
#X connect 197 0 510 0;
#X connect 198 0 142 0;
#X connect 198 0 470 0;
#X connect 199 0 149 0;
#X connect 199 0 471 0;
#X connect 200 0 156 0;
#X connect 200 0 472 0;
#X connect 201 0 163 0;
#X connect 201 0 473 0;
#X connect 202 0 170 0;
#X connect 202 0 474 0;
#X connect 203 0 177 0;
#X connect 203 0 475 0;
#X connect 204 0 184 0;
#X connect 204 0 476 0;
#X connect 205 0 136 0;
#X connect 205 1 137 0;
#X connect 206 0 143 0;
#X connect 206 1 144 0;
#X connect 207 0 150 0;
#X connect 207 1 151 0;
#X connect 208 0 157 0;
#X connect 208 1 158 0;
#X connect 209 0 164 0;
#X connect 209 1 165 0;
#X connect 210 0 171 0;
#X connect 210 1 172 0;
#X connect 211 0 178 0;
#X connect 211 1 179 0;
#X connect 212 0 185 0;
#X connect 212 1 186 0;
#X connect 213 0 214 0;
#X connect 213 1 215 0;
#X connect 214 0 216 0;
#X connect 215 0 217 0;
#X connect 216 0 218 0;
#X connect 217 0 219 0;
#X connect 218 0 83 0;
#X connect 219 0 83 0;
#X connect 220 0 270 0;
#X connect 221 0 223 0;
#X connect 222 0 224 0;
#X connect 223 0 225 0;
#X connect 224 0 226 0;
#X connect 225 0 271 0;
#X connect 226 0 271 0;
#X connect 227 0 273 0;
#X connect 228 0 230 0;
#X connect 229 0 231 0;
#X connect 230 0 232 0;
#X connect 231 0 233 0;
#X connect 232 0 274 0;
#X connect 233 0 274 0;
#X connect 234 0 276 0;
#X connect 235 0 237 0;
#X connect 236 0 238 0;
#X connect 237 0 239 0;
#X connect 238 0 240 0;
#X connect 239 0 277 0;
#X connect 240 0 277 0;
#X connect 241 0 279 0;
#X connect 242 0 244 0;
#X connect 243 0 245 0;
#X connect 244 0 246 0;
#X connect 245 0 247 0;
#X connect 246 0 280 0;
#X connect 247 0 280 0;
#X connect 248 0 282 0;
#X connect 249 0 251 0;
#X connect 250 0 252 0;
#X connect 251 0 253 0;
#X connect 252 0 254 0;
#X connect 253 0 283 0;
#X connect 254 0 283 0;
#X connect 255 0 285 0;
#X connect 256 0 258 0;
#X connect 257 0 259 0;
#X connect 258 0 260 0;
#X connect 259 0 261 0;
#X connect 260 0 286 0;
#X connect 261 0 286 0;
#X connect 262 0 288 0;
#X connect 263 0 265 0;
#X connect 264 0 266 0;
#X connect 265 0 267 0;
#X connect 266 0 268 0;
#X connect 267 0 289 0;
#X connect 268 0 289 0;
#X connect 269 0 220 0;
#X connect 269 0 478 0;
#X connect 270 0 221 0;
#X connect 270 1 222 0;
#X connect 271 0 510 0;
#X connect 272 0 227 0;
#X connect 272 0 479 0;
#X connect 273 0 228 0;
#X connect 273 1 229 0;
#X connect 274 0 510 0;
#X connect 275 0 234 0;
#X connect 275 0 480 0;
#X connect 276 0 235 0;
#X connect 276 1 236 0;
#X connect 277 0 510 0;
#X connect 278 0 241 0;
#X connect 278 0 481 0;
#X connect 279 0 242 0;
#X connect 279 1 243 0;
#X connect 280 0 510 0;
#X connect 281 0 248 0;
#X connect 281 0 482 0;
#X connect 282 0 249 0;
#X connect 282 1 250 0;
#X connect 283 0 510 0;
#X connect 284 0 255 0;
#X connect 284 0 483 0;
#X connect 285 0 256 0;
#X connect 285 1 257 0;
#X connect 286 0 510 0;
#X connect 287 0 262 0;
#X connect 287 0 484 0;
#X connect 288 0 263 0;
#X connect 288 1 264 0;
#X connect 289 0 510 0;
#X connect 290 0 291 0;
#X connect 290 1 292 0;
#X connect 291 0 293 0;
#X connect 292 0 294 0;
#X connect 293 0 295 0;
#X connect 294 0 296 0;
#X connect 295 0 24 0;
#X connect 296 0 24 0;
#X connect 297 0 346 0;
#X connect 298 0 300 0;
#X connect 299 0 301 0;
#X connect 300 0 302 0;
#X connect 301 0 303 0;
#X connect 302 0 348 0;
#X connect 303 0 348 0;
#X connect 304 0 350 0;
#X connect 305 0 307 0;
#X connect 306 0 308 0;
#X connect 307 0 309 0;
#X connect 308 0 310 0;
#X connect 309 0 351 0;
#X connect 310 0 351 0;
#X connect 311 0 353 0;
#X connect 312 0 314 0;
#X connect 313 0 315 0;
#X connect 314 0 316 0;
#X connect 315 0 317 0;
#X connect 316 0 354 0;
#X connect 317 0 354 0;
#X connect 318 0 356 0;
#X connect 319 0 321 0;
#X connect 320 0 322 0;
#X connect 321 0 323 0;
#X connect 322 0 324 0;
#X connect 323 0 357 0;
#X connect 324 0 357 0;
#X connect 325 0 359 0;
#X connect 326 0 328 0;
#X connect 327 0 329 0;
#X connect 328 0 330 0;
#X connect 329 0 331 0;
#X connect 330 0 360 0;
#X connect 331 0 360 0;
#X connect 332 0 362 0;
#X connect 333 0 335 0;
#X connect 334 0 336 0;
#X connect 335 0 337 0;
#X connect 336 0 338 0;
#X connect 337 0 363 0;
#X connect 338 0 363 0;
#X connect 339 0 365 0;
#X connect 340 0 342 0;
#X connect 341 0 343 0;
#X connect 342 0 344 0;
#X connect 343 0 345 0;
#X connect 344 0 366 0;
#X connect 345 0 366 0;
#X connect 346 0 298 0;
#X connect 346 1 299 0;
#X connect 347 0 297 0;
#X connect 347 0 486 0;
#X connect 348 0 510 0;
#X connect 349 0 304 0;
#X connect 349 0 487 0;
#X connect 350 0 305 0;
#X connect 350 1 306 0;
#X connect 351 0 510 0;
#X connect 352 0 311 0;
#X connect 352 0 488 0;
#X connect 353 0 312 0;
#X connect 353 1 313 0;
#X connect 354 0 510 0;
#X connect 355 0 318 0;
#X connect 355 0 489 0;
#X connect 356 0 319 0;
#X connect 356 1 320 0;
#X connect 357 0 510 0;
#X connect 358 0 325 0;
#X connect 358 0 490 0;
#X connect 359 0 326 0;
#X connect 359 1 327 0;
#X connect 360 0 510 0;
#X connect 361 0 332 0;
#X connect 361 0 491 0;
#X connect 362 0 333 0;
#X connect 362 1 334 0;
#X connect 363 0 510 0;
#X connect 364 0 339 0;
#X connect 364 0 492 0;
#X connect 365 0 340 0;
#X connect 365 1 341 0;
#X connect 366 0 510 0;
#X connect 370 0 373 0;
#X connect 371 0 374 0;
#X connect 372 0 375 0;
#X connect 373 0 402 0;
#X connect 374 0 376 0;
#X connect 375 0 377 0;
#X connect 376 0 510 0;
#X connect 377 0 510 0;
#X connect 378 0 379 0;
#X connect 378 0 380 0;
#X connect 378 0 381 0;
#X connect 379 0 382 0;
#X connect 380 0 383 0;
#X connect 381 0 384 0;
#X connect 382 0 403 0;
#X connect 383 0 404 0;
#X connect 384 0 405 0;
#X connect 385 0 386 0;
#X connect 385 0 387 0;
#X connect 385 0 388 0;
#X connect 386 0 389 0;
#X connect 387 0 390 0;
#X connect 388 0 391 0;
#X connect 389 0 406 0;
#X connect 390 0 407 0;
#X connect 391 0 408 0;
#X connect 392 0 393 0;
#X connect 392 0 394 0;
#X connect 392 0 395 0;
#X connect 393 0 396 0;
#X connect 394 0 397 0;
#X connect 395 0 398 0;
#X connect 396 0 409 0;
#X connect 397 0 410 0;
#X connect 398 0 411 0;
#X connect 399 0 378 0;
#X connect 399 0 494 0;
#X connect 400 0 385 0;
#X connect 400 0 495 0;
#X connect 401 0 392 0;
#X connect 401 0 496 0;
#X connect 402 0 510 0;
#X connect 403 0 510 0;
#X connect 404 0 510 0;
#X connect 405 0 510 0;
#X connect 406 0 510 0;
#X connect 407 0 510 0;
#X connect 408 0 510 0;
#X connect 409 0 510 0;
#X connect 410 0 510 0;
#X connect 411 0 510 0;
#X connect 413 0 418 0;
#X connect 414 0 417 0;
#X connect 415 0 416 0;
#X connect 416 0 414 0;
#X connect 416 0 497 0;
#X connect 417 0 510 0;
#X connect 418 0 419 0;
#X connect 419 0 420 0;
#X connect 419 0 498 0;
#X connect 420 0 421 0;
#X connect 421 0 510 0;
#X connect 422 0 437 0;
#X connect 423 0 438 0;
#X connect 424 0 439 0;
#X connect 425 0 440 0;
#X connect 426 0 441 0;
#X connect 427 0 442 0;
#X connect 428 0 443 0;
#X connect 429 0 444 0;
#X connect 430 0 433 0;
#X connect 431 0 435 0;
#X connect 431 0 436 0;
#X connect 432 0 434 0;
#X connect 433 0 510 0;
#X connect 434 0 510 0;
#X connect 435 0 510 0;
#X connect 436 0 510 0;
#X connect 437 0 510 0;
#X connect 438 0 510 0;
#X connect 439 0 510 0;
#X connect 440 0 510 0;
#X connect 441 0 510 0;
#X connect 442 0 510 0;
#X connect 443 0 510 0;
#X connect 444 0 510 0;
#X connect 510 0 511 0;
#X connect 512 0 513 0;
#X connect 513 0 530 0;
#X connect 515 0 516 0;
#X connect 516 0 26 0;
#X connect 516 0 517 0;
#X connect 517 0 511 0;
#X connect 518 0 415 0;
#X connect 519 0 422 0;
#X connect 519 0 499 0;
#X connect 520 0 423 0;
#X connect 520 0 500 0;
#X connect 521 0 424 0;
#X connect 521 0 501 0;
#X connect 522 0 425 0;
#X connect 522 0 502 0;
#X connect 523 0 426 0;
#X connect 523 0 503 0;
#X connect 524 0 427 0;
#X connect 524 0 504 0;
#X connect 525 0 428 0;
#X connect 525 0 505 0;
#X connect 526 0 429 0;
#X connect 526 0 506 0;
#X connect 527 0 430 0;
#X connect 527 0 507 0;
#X connect 528 0 431 0;
#X connect 528 0 508 0;
#X connect 529 0 432 0;
#X connect 529 0 509 0;
#X connect 530 0 514 0;
#X connect 530 0 13 0;
#X connect 530 0 54 0;
#X connect 530 0 53 0;
#X connect 530 0 52 0;
#X connect 530 0 51 0;
#X connect 530 0 50 0;
#X connect 530 0 49 0;
#X connect 530 0 48 0;
#X connect 530 0 15 0;
#X connect 530 0 97 0;
#X connect 530 0 96 0;
#X connect 530 0 95 0;
#X connect 530 0 94 0;
#X connect 530 0 93 0;
#X connect 530 0 92 0;
#X connect 530 0 91 0;
#X connect 530 0 16 0;
#X connect 530 0 125 0;
#X connect 530 0 124 0;
#X connect 530 0 123 0;
#X connect 530 0 122 0;
#X connect 530 0 121 0;
#X connect 530 0 120 0;
#X connect 530 0 119 0;
#X connect 530 0 17 0;
#X connect 530 0 204 0;
#X connect 530 0 203 0;
#X connect 530 0 202 0;
#X connect 530 0 201 0;
#X connect 530 0 200 0;
#X connect 530 0 199 0;
#X connect 530 0 198 0;
#X connect 530 0 18 0;
#X connect 530 0 287 0;
#X connect 530 0 284 0;
#X connect 530 0 281 0;
#X connect 530 0 278 0;
#X connect 530 0 275 0;
#X connect 530 0 272 0;
#X connect 530 0 269 0;
#X connect 530 0 19 0;
#X connect 530 0 364 0;
#X connect 530 0 361 0;
#X connect 530 0 358 0;
#X connect 530 0 355 0;
#X connect 530 0 352 0;
#X connect 530 0 349 0;
#X connect 530 0 347 0;
#X connect 530 0 20 0;
#X connect 530 0 401 0;
#X connect 530 0 400 0;
#X connect 530 0 399 0;
#X connect 530 0 413 0;
#X connect 530 0 518 0;
#X connect 530 0 519 0;
#X connect 530 0 520 0;
#X connect 530 0 521 0;
#X connect 530 0 522 0;
#X connect 530 0 523 0;
#X connect 530 0 524 0;
#X connect 530 0 525 0;
#X connect 530 0 526 0;
#X connect 530 0 527 0;
#X connect 530 0 528 0;
#X connect 530 0 529 0;
