#N canvas 0 0 1892 963 10;
#X obj 68 180 hradio 35 1 0 8 empty empty empty 0 -8 0 10 -262144 -1
-1 0;
#X msg 155 272 open \$1;
#X obj 155 355 comport \$1 115200;
#X msg 81 272 devices;
#X msg 231 272 close;
#X obj 464 266 serial_print;
#X floatatom 876 192 5 0 0 0 - - -, f 5;
#X floatatom 876 241 5 0 0 0 - - -, f 5;
#X floatatom 876 290 5 0 0 0 - - -, f 5;
#X floatatom 876 339 5 0 0 0 - - -, f 5;
#X floatatom 876 388 5 0 0 0 - - -, f 5;
#X floatatom 876 437 5 0 0 0 - - -, f 5;
#X floatatom 876 486 5 0 0 0 - - -, f 5;
#X obj 930 192 autoscale 0.001 0.999;
#X obj 930 241 autoscale 0.001 0.999;
#X obj 930 290 autoscale 0.001 0.999;
#X obj 930 339 autoscale 0.001 0.999;
#X obj 930 388 autoscale 0.001 0.999;
#X obj 930 437 autoscale 0.001 0.999;
#X obj 930 486 autoscale 0.001 0.999;
#X floatatom 1084 191 5 0 0 0 - - -, f 5;
#X floatatom 1084 239 5 0 0 0 - - -, f 5;
#X floatatom 1084 287 5 0 0 0 - - -, f 5;
#X floatatom 1084 335 5 0 0 0 - - -, f 5;
#X floatatom 1084 383 5 0 0 0 - - -, f 5;
#X floatatom 1084 431 5 0 0 0 - - -, f 5;
#X floatatom 1084 479 5 0 0 0 - - -, f 5;
#X obj 743 192 split 101 200;
#X msg 1148 192 send /vol1 \$1;
#X obj 1299 215 import mrpeach;
#X obj 1301 334 packOSC;
#X obj 460 207 inlet;
#X obj 743 240 split 1101 1200;
#X obj 743 288 split 2101 2200;
#X obj 743 336 split 3101 3200;
#X obj 743 384 split 4101 4200;
#X obj 743 432 split 5101 5200;
#X obj 743 480 split 6101 6200;
#X msg 1148 286 send /send1 \$1;
#X msg 1148 239 send /pan1 \$1;
#X msg 1148 333 send /eqLow1 \$1;
#X msg 1148 380 send /eqMid \$1;
#X msg 1148 427 send /eqHi1 \$1;
#X msg 1148 474 send /comp1 \$1;
#X obj 1338 451 print;
#X text 133 123 # Open COM port;
#X text 73 158 0;
#X text 113 158 1;
#X text 151 158 2;
#X text 181 158 ...;
#X text 767 148 # Volume range is 101 to 200 and so on;
#X text 1153 148 # Send OSC message;
#X text 1404 223 # import mrpeach for network/OSC functions;
#X text 1404 334 # pack as an OSC message;
#X text 1404 450 # print to Pd console;
#X text 339 389 # Import 'serial_print.pd' from Arduino_Pd;
#X connect 0 0 1 0;
#X connect 1 0 2 0;
#X connect 2 0 5 0;
#X connect 3 0 2 0;
#X connect 4 0 2 0;
#X connect 5 0 27 0;
#X connect 5 0 32 0;
#X connect 5 0 33 0;
#X connect 5 0 34 0;
#X connect 5 0 35 0;
#X connect 5 0 36 0;
#X connect 5 0 37 0;
#X connect 6 0 13 0;
#X connect 7 0 14 0;
#X connect 8 0 15 0;
#X connect 9 0 16 0;
#X connect 10 0 17 0;
#X connect 11 0 18 0;
#X connect 12 0 19 0;
#X connect 13 0 20 0;
#X connect 14 0 21 0;
#X connect 15 0 22 0;
#X connect 16 0 23 0;
#X connect 17 0 24 0;
#X connect 18 0 25 0;
#X connect 19 0 26 0;
#X connect 20 0 28 0;
#X connect 21 0 39 0;
#X connect 22 0 38 0;
#X connect 23 0 40 0;
#X connect 24 0 41 0;
#X connect 25 0 42 0;
#X connect 26 0 43 0;
#X connect 27 0 6 0;
#X connect 28 0 30 0;
#X connect 29 0 30 0;
#X connect 30 0 44 0;
#X connect 31 0 5 0;
#X connect 32 0 7 0;
#X connect 33 0 8 0;
#X connect 34 0 9 0;
#X connect 35 0 10 0;
#X connect 36 0 11 0;
#X connect 37 0 12 0;
#X connect 38 0 30 0;
#X connect 39 0 30 0;
#X connect 40 0 30 0;
#X connect 41 0 30 0;
#X connect 42 0 30 0;
#X connect 43 0 30 0;
